<mxfile host="app.diagrams.net" modified="2023-11-10T15:52:41.111Z" agent="Mozilla/5.0 (Macintosh; Intel Mac OS X 10_15_7) AppleWebKit/605.1.15 (KHTML, like Gecko) Version/16.2 Safari/605.1.15" etag="10zYD6vu6Tukd4N9UxRn" version="22.1.0" type="github">
  <diagram name="Page-1" id="iTWbd6mipeBpZk2Jp2Tz">
    <mxGraphModel dx="892" dy="388" grid="1" gridSize="10" guides="1" tooltips="1" connect="1" arrows="1" fold="1" page="1" pageScale="1" pageWidth="827" pageHeight="1169" background="#ffffff" math="0" shadow="0">
      <root>
        <mxCell id="0" />
        <mxCell id="1" parent="0" />
        <mxCell id="iywb-d-cCoqlkZep_opl-2" value="" style="sketch=0;pointerEvents=1;shadow=0;dashed=0;html=1;strokeColor=none;fillColor=#434445;aspect=fixed;labelPosition=center;verticalLabelPosition=bottom;verticalAlign=top;align=center;outlineConnect=0;shape=mxgraph.vvd.wi_fi;rotation=90;" parent="1" vertex="1">
          <mxGeometry x="90" y="100" width="50" height="50" as="geometry" />
        </mxCell>
        <mxCell id="iywb-d-cCoqlkZep_opl-3" value="" style="verticalLabelPosition=bottom;shadow=0;dashed=0;align=center;html=1;verticalAlign=top;shape=mxgraph.electrical.radio.aerial_-_antenna_2;" parent="1" vertex="1">
          <mxGeometry x="140" y="160" width="30" height="40" as="geometry" />
        </mxCell>
        <mxCell id="1zK_jm-uq4jT2fNUcjU_-1" value="Feeder Computer" style="sketch=0;aspect=fixed;pointerEvents=1;shadow=0;dashed=0;html=1;strokeColor=none;labelPosition=left;verticalLabelPosition=middle;verticalAlign=middle;align=right;fillColor=#00188D;shape=mxgraph.azure.computer" parent="1" vertex="1">
          <mxGeometry x="131" y="244" width="50" height="45" as="geometry" />
        </mxCell>
        <mxCell id="1zK_jm-uq4jT2fNUcjU_-2" value="" style="fontColor=#0066CC;verticalAlign=top;verticalLabelPosition=bottom;labelPosition=center;align=center;html=1;outlineConnect=0;fillColor=#CCCCCC;strokeColor=#6881B3;gradientColor=none;gradientDirection=north;strokeWidth=2;shape=mxgraph.networks.usb_stick;rotation=-180;" parent="1" vertex="1">
          <mxGeometry x="146" y="200" width="20" height="44.44" as="geometry" />
        </mxCell>
        <mxCell id="1zK_jm-uq4jT2fNUcjU_-3" value="" style="shape=image;html=1;verticalAlign=top;verticalLabelPosition=bottom;labelBackgroundColor=#ffffff;imageAspect=0;aspect=fixed;image=https://cdn4.iconfinder.com/data/icons/transportation-190/1000/airline_aircraft_airport_air_airliner_airplane_airway-128.png" parent="1" vertex="1">
          <mxGeometry x="10" y="10" width="128" height="128" as="geometry" />
        </mxCell>
        <mxCell id="1zK_jm-uq4jT2fNUcjU_-4" value="Aircraft with ADS-B Transponder" style="text;strokeColor=none;align=left;fillColor=none;html=1;verticalAlign=middle;whiteSpace=wrap;rounded=0;" parent="1" vertex="1">
          <mxGeometry x="125" y="59" width="210" height="30" as="geometry" />
        </mxCell>
        <mxCell id="1zK_jm-uq4jT2fNUcjU_-5" value="ADS-B Antenna" style="text;strokeColor=none;align=right;fillColor=none;html=1;verticalAlign=middle;whiteSpace=wrap;rounded=0;" parent="1" vertex="1">
          <mxGeometry x="35" y="165" width="105" height="30" as="geometry" />
        </mxCell>
        <mxCell id="1zK_jm-uq4jT2fNUcjU_-6" value="SDR" style="text;strokeColor=none;align=right;fillColor=none;html=1;verticalAlign=middle;whiteSpace=wrap;rounded=0;" parent="1" vertex="1">
          <mxGeometry x="100" y="200" width="40" height="30" as="geometry" />
        </mxCell>
        <mxCell id="wi6hc9yVbQGGReYQ5mCS-23" style="edgeStyle=orthogonalEdgeStyle;curved=1;rounded=0;orthogonalLoop=1;jettySize=auto;html=1;entryX=0;entryY=0.5;entryDx=0;entryDy=0;entryPerimeter=0;" parent="1" source="wi6hc9yVbQGGReYQ5mCS-3" target="wi6hc9yVbQGGReYQ5mCS-14" edge="1">
          <mxGeometry relative="1" as="geometry">
            <mxPoint x="400" y="440" as="targetPoint" />
            <Array as="points">
              <mxPoint x="380" y="290" />
              <mxPoint x="380" y="430" />
              <mxPoint x="520" y="430" />
              <mxPoint x="520" y="354" />
            </Array>
          </mxGeometry>
        </mxCell>
        <mxCell id="wi6hc9yVbQGGReYQ5mCS-24" value="MLAT" style="edgeLabel;html=1;align=center;verticalAlign=middle;resizable=0;points=[];" parent="wi6hc9yVbQGGReYQ5mCS-23" vertex="1" connectable="0">
          <mxGeometry x="0.1511" y="-1" relative="1" as="geometry">
            <mxPoint x="-81" y="-61" as="offset" />
          </mxGeometry>
        </mxCell>
        <mxCell id="wi6hc9yVbQGGReYQ5mCS-25" style="edgeStyle=orthogonalEdgeStyle;curved=1;rounded=0;orthogonalLoop=1;jettySize=auto;html=1;startArrow=classic;startFill=1;entryX=0.5;entryY=1;entryDx=0;entryDy=0;entryPerimeter=0;" parent="1" source="wi6hc9yVbQGGReYQ5mCS-3" target="wi6hc9yVbQGGReYQ5mCS-5" edge="1">
          <mxGeometry relative="1" as="geometry">
            <mxPoint x="339" y="200" as="targetPoint" />
          </mxGeometry>
        </mxCell>
        <mxCell id="wi6hc9yVbQGGReYQ5mCS-26" value="API Calls" style="edgeLabel;html=1;align=center;verticalAlign=middle;resizable=0;points=[];" parent="wi6hc9yVbQGGReYQ5mCS-25" vertex="1" connectable="0">
          <mxGeometry x="-0.0462" y="-1" relative="1" as="geometry">
            <mxPoint as="offset" />
          </mxGeometry>
        </mxCell>
        <mxCell id="wi6hc9yVbQGGReYQ5mCS-3" value="bordercontrol" style="sketch=0;aspect=fixed;pointerEvents=1;shadow=0;dashed=0;html=1;strokeColor=none;labelPosition=center;verticalLabelPosition=bottom;verticalAlign=top;align=center;fillColor=#00188D;shape=mxgraph.mscae.enterprise.web_server" parent="1" vertex="1">
          <mxGeometry x="320" y="265" width="38" height="50" as="geometry" />
        </mxCell>
        <mxCell id="wi6hc9yVbQGGReYQ5mCS-5" value="ATC" style="sketch=0;aspect=fixed;pointerEvents=1;shadow=0;dashed=0;html=1;strokeColor=none;labelPosition=left;verticalLabelPosition=middle;verticalAlign=middle;align=right;fillColor=#00188D;shape=mxgraph.mscae.enterprise.database_server" parent="1" vertex="1">
          <mxGeometry x="320" y="120" width="38" height="50" as="geometry" />
        </mxCell>
        <mxCell id="wi6hc9yVbQGGReYQ5mCS-7" value="feed-in&lt;br&gt;containers" style="sketch=0;aspect=fixed;pointerEvents=1;shadow=0;dashed=0;html=1;strokeColor=none;labelPosition=center;verticalLabelPosition=bottom;verticalAlign=top;align=center;fillColor=#00188D;shape=mxgraph.mscae.enterprise.cluster_server" parent="1" vertex="1">
          <mxGeometry x="440" y="329" width="40" height="50" as="geometry" />
        </mxCell>
        <mxCell id="wi6hc9yVbQGGReYQ5mCS-9" value="Virtual Radar Server&lt;br&gt;(legacy)" style="sketch=0;aspect=fixed;pointerEvents=1;shadow=0;dashed=0;html=1;strokeColor=none;labelPosition=center;verticalLabelPosition=bottom;verticalAlign=top;align=center;fillColor=#00188D;shape=mxgraph.mscae.enterprise.application_server" parent="1" vertex="1">
          <mxGeometry x="707" y="329" width="43" height="50" as="geometry" />
        </mxCell>
        <mxCell id="wi6hc9yVbQGGReYQ5mCS-11" value="Interwebs" style="ellipse;shape=cloud;whiteSpace=wrap;html=1;" parent="1" vertex="1">
          <mxGeometry x="190" y="224" width="99" height="41" as="geometry" />
        </mxCell>
        <mxCell id="wi6hc9yVbQGGReYQ5mCS-12" style="edgeStyle=orthogonalEdgeStyle;curved=1;rounded=0;orthogonalLoop=1;jettySize=auto;html=1;entryX=0;entryY=0.5;entryDx=0;entryDy=0;entryPerimeter=0;" parent="1" source="wi6hc9yVbQGGReYQ5mCS-3" target="wi6hc9yVbQGGReYQ5mCS-7" edge="1">
          <mxGeometry relative="1" as="geometry" />
        </mxCell>
        <mxCell id="wi6hc9yVbQGGReYQ5mCS-13" value="BEAST" style="edgeLabel;html=1;align=center;verticalAlign=middle;resizable=0;points=[];" parent="wi6hc9yVbQGGReYQ5mCS-12" vertex="1" connectable="0">
          <mxGeometry x="0.0236" y="3" relative="1" as="geometry">
            <mxPoint as="offset" />
          </mxGeometry>
        </mxCell>
        <mxCell id="wi6hc9yVbQGGReYQ5mCS-14" value="regional&lt;br&gt;multiplexers" style="sketch=0;aspect=fixed;pointerEvents=1;shadow=0;dashed=0;html=1;strokeColor=none;labelPosition=center;verticalLabelPosition=bottom;verticalAlign=top;align=center;fillColor=#00188D;shape=mxgraph.mscae.enterprise.cluster_server" parent="1" vertex="1">
          <mxGeometry x="567" y="329" width="40" height="50" as="geometry" />
        </mxCell>
        <mxCell id="wi6hc9yVbQGGReYQ5mCS-16" style="edgeStyle=orthogonalEdgeStyle;curved=1;rounded=0;orthogonalLoop=1;jettySize=auto;html=1;entryX=0;entryY=0.5;entryDx=0;entryDy=0;entryPerimeter=0;" parent="1" source="wi6hc9yVbQGGReYQ5mCS-7" target="wi6hc9yVbQGGReYQ5mCS-14" edge="1">
          <mxGeometry relative="1" as="geometry" />
        </mxCell>
        <mxCell id="wi6hc9yVbQGGReYQ5mCS-17" value="BEAST" style="edgeLabel;html=1;align=center;verticalAlign=middle;resizable=0;points=[];" parent="wi6hc9yVbQGGReYQ5mCS-16" vertex="1" connectable="0">
          <mxGeometry x="0.025" y="-2" relative="1" as="geometry">
            <mxPoint x="-15" y="-2" as="offset" />
          </mxGeometry>
        </mxCell>
        <mxCell id="wi6hc9yVbQGGReYQ5mCS-21" style="edgeStyle=orthogonalEdgeStyle;curved=1;rounded=0;orthogonalLoop=1;jettySize=auto;html=1;entryX=0;entryY=0.5;entryDx=0;entryDy=0;entryPerimeter=0;startArrow=classic;startFill=1;" parent="1" source="wi6hc9yVbQGGReYQ5mCS-14" target="wi6hc9yVbQGGReYQ5mCS-9" edge="1">
          <mxGeometry relative="1" as="geometry" />
        </mxCell>
        <mxCell id="wi6hc9yVbQGGReYQ5mCS-51" value="BEAST" style="edgeLabel;html=1;align=center;verticalAlign=middle;resizable=0;points=[];" parent="wi6hc9yVbQGGReYQ5mCS-21" vertex="1" connectable="0">
          <mxGeometry x="-0.08" y="-1" relative="1" as="geometry">
            <mxPoint x="7" y="-1" as="offset" />
          </mxGeometry>
        </mxCell>
        <mxCell id="wi6hc9yVbQGGReYQ5mCS-27" value="NATS" style="sketch=0;aspect=fixed;pointerEvents=1;shadow=0;dashed=0;html=1;strokeColor=none;labelPosition=left;verticalLabelPosition=middle;verticalAlign=middle;align=right;fillColor=#00188D;shape=mxgraph.mscae.enterprise.server_generic" parent="1" vertex="1">
          <mxGeometry x="448" y="120" width="24" height="50" as="geometry" />
        </mxCell>
        <mxCell id="wi6hc9yVbQGGReYQ5mCS-28" value="Msgs" style="edgeStyle=orthogonalEdgeStyle;curved=1;rounded=0;orthogonalLoop=1;jettySize=auto;html=1;" parent="1" source="wi6hc9yVbQGGReYQ5mCS-7" target="wi6hc9yVbQGGReYQ5mCS-27" edge="1">
          <mxGeometry relative="1" as="geometry">
            <mxPoint x="460" y="190" as="targetPoint" />
          </mxGeometry>
        </mxCell>
        <mxCell id="wi6hc9yVbQGGReYQ5mCS-31" style="edgeStyle=orthogonalEdgeStyle;curved=1;rounded=0;orthogonalLoop=1;jettySize=auto;html=1;entryX=0;entryY=0.5;entryDx=0;entryDy=0;entryPerimeter=0;" parent="1" source="1zK_jm-uq4jT2fNUcjU_-1" target="wi6hc9yVbQGGReYQ5mCS-3" edge="1">
          <mxGeometry relative="1" as="geometry" />
        </mxCell>
        <mxCell id="wi6hc9yVbQGGReYQ5mCS-32" value="stunnel&lt;br&gt;BEAST + MLAT" style="edgeLabel;html=1;align=center;verticalAlign=middle;resizable=0;points=[];fillColor=none;" parent="wi6hc9yVbQGGReYQ5mCS-31" vertex="1" connectable="0">
          <mxGeometry x="0.0092" y="1" relative="1" as="geometry">
            <mxPoint x="-11" y="31" as="offset" />
          </mxGeometry>
        </mxCell>
        <mxCell id="wi6hc9yVbQGGReYQ5mCS-35" value="pw-enrichment" style="sketch=0;aspect=fixed;pointerEvents=1;shadow=0;dashed=0;html=1;strokeColor=none;labelPosition=center;verticalLabelPosition=bottom;verticalAlign=top;align=center;fillColor=#00188D;shape=mxgraph.mscae.enterprise.server_generic" parent="1" vertex="1">
          <mxGeometry x="530" y="215" width="24" height="50" as="geometry" />
        </mxCell>
        <mxCell id="wi6hc9yVbQGGReYQ5mCS-36" style="edgeStyle=orthogonalEdgeStyle;curved=1;rounded=0;orthogonalLoop=1;jettySize=auto;html=1;exitX=1;exitY=0.5;exitDx=0;exitDy=0;exitPerimeter=0;entryX=0.5;entryY=0;entryDx=0;entryDy=0;entryPerimeter=0;startArrow=classic;startFill=1;" parent="1" source="wi6hc9yVbQGGReYQ5mCS-27" target="wi6hc9yVbQGGReYQ5mCS-35" edge="1">
          <mxGeometry relative="1" as="geometry" />
        </mxCell>
        <mxCell id="wi6hc9yVbQGGReYQ5mCS-37" value="Msgs" style="edgeLabel;html=1;align=center;verticalAlign=middle;resizable=0;points=[];" parent="wi6hc9yVbQGGReYQ5mCS-36" vertex="1" connectable="0">
          <mxGeometry x="0.2571" y="-12" relative="1" as="geometry">
            <mxPoint x="10" y="27" as="offset" />
          </mxGeometry>
        </mxCell>
        <mxCell id="wi6hc9yVbQGGReYQ5mCS-38" value="pw_router" style="sketch=0;aspect=fixed;pointerEvents=1;shadow=0;dashed=0;html=1;strokeColor=none;labelPosition=center;verticalLabelPosition=bottom;verticalAlign=top;align=center;fillColor=#00188D;shape=mxgraph.mscae.enterprise.server_generic" parent="1" vertex="1">
          <mxGeometry x="620" y="215" width="24" height="50" as="geometry" />
        </mxCell>
        <mxCell id="wi6hc9yVbQGGReYQ5mCS-39" style="edgeStyle=orthogonalEdgeStyle;curved=1;rounded=0;orthogonalLoop=1;jettySize=auto;html=1;exitX=0.5;exitY=0;exitDx=0;exitDy=0;exitPerimeter=0;entryX=1;entryY=0.5;entryDx=0;entryDy=0;entryPerimeter=0;startArrow=classic;startFill=1;" parent="1" source="wi6hc9yVbQGGReYQ5mCS-38" target="wi6hc9yVbQGGReYQ5mCS-27" edge="1">
          <mxGeometry relative="1" as="geometry" />
        </mxCell>
        <mxCell id="wi6hc9yVbQGGReYQ5mCS-40" value="Msgs" style="edgeLabel;html=1;align=center;verticalAlign=middle;resizable=0;points=[];" parent="wi6hc9yVbQGGReYQ5mCS-39" vertex="1" connectable="0">
          <mxGeometry x="-0.7304" y="6" relative="1" as="geometry">
            <mxPoint x="4" y="6" as="offset" />
          </mxGeometry>
        </mxCell>
        <mxCell id="wi6hc9yVbQGGReYQ5mCS-41" value="pw_ws_broker" style="sketch=0;aspect=fixed;pointerEvents=1;shadow=0;dashed=0;html=1;strokeColor=none;labelPosition=center;verticalLabelPosition=bottom;verticalAlign=top;align=center;fillColor=#00188D;shape=mxgraph.mscae.enterprise.server_generic" parent="1" vertex="1">
          <mxGeometry x="707" y="215" width="24" height="50" as="geometry" />
        </mxCell>
        <mxCell id="wi6hc9yVbQGGReYQ5mCS-42" style="edgeStyle=orthogonalEdgeStyle;curved=1;rounded=0;orthogonalLoop=1;jettySize=auto;html=1;entryX=0.5;entryY=0;entryDx=0;entryDy=0;entryPerimeter=0;" parent="1" source="wi6hc9yVbQGGReYQ5mCS-27" target="wi6hc9yVbQGGReYQ5mCS-41" edge="1">
          <mxGeometry relative="1" as="geometry" />
        </mxCell>
        <mxCell id="wi6hc9yVbQGGReYQ5mCS-43" value="Msgs" style="edgeLabel;html=1;align=center;verticalAlign=middle;resizable=0;points=[];" parent="wi6hc9yVbQGGReYQ5mCS-42" vertex="1" connectable="0">
          <mxGeometry x="0.2188" y="-20" relative="1" as="geometry">
            <mxPoint x="44" y="25" as="offset" />
          </mxGeometry>
        </mxCell>
        <mxCell id="wi6hc9yVbQGGReYQ5mCS-46" value="" style="shape=flexArrow;endArrow=classic;html=1;rounded=0;curved=1;" parent="1" edge="1">
          <mxGeometry width="50" height="50" relative="1" as="geometry">
            <mxPoint x="563" y="239.5" as="sourcePoint" />
            <mxPoint x="613" y="240" as="targetPoint" />
          </mxGeometry>
        </mxCell>
        <mxCell id="wi6hc9yVbQGGReYQ5mCS-47" value="" style="shape=flexArrow;endArrow=classic;html=1;rounded=0;curved=1;" parent="1" edge="1">
          <mxGeometry width="50" height="50" relative="1" as="geometry">
            <mxPoint x="650" y="239.5" as="sourcePoint" />
            <mxPoint x="700" y="240" as="targetPoint" />
          </mxGeometry>
        </mxCell>
        <mxCell id="wi6hc9yVbQGGReYQ5mCS-48" value="Web Client" style="sketch=0;aspect=fixed;pointerEvents=1;shadow=0;dashed=0;html=1;strokeColor=none;labelPosition=center;verticalLabelPosition=bottom;verticalAlign=top;align=center;fillColor=#00188D;shape=mxgraph.azure.computer" parent="1" vertex="1">
          <mxGeometry x="855" y="217.5" width="50" height="45" as="geometry" />
        </mxCell>
        <mxCell id="wi6hc9yVbQGGReYQ5mCS-49" style="edgeStyle=orthogonalEdgeStyle;curved=1;rounded=0;orthogonalLoop=1;jettySize=auto;html=1;entryX=1;entryY=0.5;entryDx=0;entryDy=0;entryPerimeter=0;" parent="1" source="wi6hc9yVbQGGReYQ5mCS-48" target="wi6hc9yVbQGGReYQ5mCS-41" edge="1">
          <mxGeometry relative="1" as="geometry" />
        </mxCell>
        <mxCell id="wi6hc9yVbQGGReYQ5mCS-50" value="Websockets" style="edgeLabel;html=1;align=center;verticalAlign=middle;resizable=0;points=[];" parent="wi6hc9yVbQGGReYQ5mCS-49" vertex="1" connectable="0">
          <mxGeometry x="-0.0633" relative="1" as="geometry">
            <mxPoint as="offset" />
          </mxGeometry>
        </mxCell>
        <mxCell id="wi6hc9yVbQGGReYQ5mCS-54" value="pw-ui" style="sketch=0;aspect=fixed;pointerEvents=1;shadow=0;dashed=0;html=1;strokeColor=none;labelPosition=center;verticalLabelPosition=bottom;verticalAlign=top;align=center;fillColor=#00188D;shape=mxgraph.mscae.enterprise.application_server2" parent="1" vertex="1">
          <mxGeometry x="698" y="70" width="43" height="50" as="geometry" />
        </mxCell>
        <mxCell id="wi6hc9yVbQGGReYQ5mCS-55" style="edgeStyle=orthogonalEdgeStyle;curved=1;rounded=0;orthogonalLoop=1;jettySize=auto;html=1;exitX=0;exitY=0.5;exitDx=0;exitDy=0;exitPerimeter=0;entryX=1;entryY=0.62;entryDx=0;entryDy=0;entryPerimeter=0;" parent="1" source="wi6hc9yVbQGGReYQ5mCS-48" target="wi6hc9yVbQGGReYQ5mCS-54" edge="1">
          <mxGeometry relative="1" as="geometry">
            <Array as="points">
              <mxPoint x="820" y="240" />
              <mxPoint x="820" y="101" />
            </Array>
          </mxGeometry>
        </mxCell>
        <mxCell id="wi6hc9yVbQGGReYQ5mCS-56" value="HTTPS" style="edgeLabel;html=1;align=center;verticalAlign=middle;resizable=0;points=[];" parent="wi6hc9yVbQGGReYQ5mCS-55" vertex="1" connectable="0">
          <mxGeometry x="-0.17" y="1" relative="1" as="geometry">
            <mxPoint as="offset" />
          </mxGeometry>
        </mxCell>
        <mxCell id="wi6hc9yVbQGGReYQ5mCS-57" style="edgeStyle=orthogonalEdgeStyle;curved=1;rounded=0;orthogonalLoop=1;jettySize=auto;html=1;entryX=1;entryY=0.62;entryDx=0;entryDy=0;entryPerimeter=0;" parent="1" source="wi6hc9yVbQGGReYQ5mCS-48" target="wi6hc9yVbQGGReYQ5mCS-9" edge="1">
          <mxGeometry relative="1" as="geometry">
            <Array as="points">
              <mxPoint x="820" y="240" />
              <mxPoint x="820" y="360" />
            </Array>
          </mxGeometry>
        </mxCell>
        <mxCell id="wi6hc9yVbQGGReYQ5mCS-58" value="HTTPS" style="edgeLabel;html=1;align=center;verticalAlign=middle;resizable=0;points=[];" parent="wi6hc9yVbQGGReYQ5mCS-57" vertex="1" connectable="0">
          <mxGeometry x="-0.1378" relative="1" as="geometry">
            <mxPoint as="offset" />
          </mxGeometry>
        </mxCell>
      </root>
    </mxGraphModel>
  </diagram>
</mxfile>
